<?xml version="1.0" encoding="UTF-8"?>
<svg id="Layer_1" data-name="Layer 1" xmlns="http://www.w3.org/2000/svg" viewBox="0 0 1920 636.36">
  <defs>
    <style>
      .cls-1 {
        fill: #33313b;
      }
    </style>
  </defs>
  <path class="cls-1" d="M343.05,367.43c-17.63,33.11-52.51,55.71-92.57,55.71-57.79,0-104.8-47.01-104.8-104.8V86.56h-48.4v231.77c0,84.48,68.73,153.21,153.21,153.21,46.75,0,88.66-21.05,116.79-54.16-10.6-15.07-18.85-31.89-24.22-49.95Z"/>
  <path class="cls-1" d="M637.5,318.83c0-25.51,5.57-49.74,15.55-71.55-3.72-18.8-9.04-40.75-16.65-65.16l-46.21,14.41c22.63,72.58,23.1,121.37,23.11,121.8,0,57.79-47.01,104.8-104.8,104.8s-104.8-47.01-104.8-104.75c0-.49.47-49.48,23.1-121.84l-46.2-14.45c-25.02,80.01-25.31,133.97-25.31,136.23,0,84.48,68.73,153.21,153.21,153.21,54.1,0,101.74-28.19,129.01-70.64v-82.07Z"/>
  <path class="cls-1" d="M810.07,165.62c-84.48,0-153.21,68.73-153.21,153.21v230.97h48.4v-230.97c0-57.79,47.01-104.8,104.8-104.8s104.8,47.01,104.8,104.8-47.01,104.8-104.8,104.8c-35.21,0-66.43-17.46-85.44-44.17v66.48c24.42,16.47,53.83,26.09,85.44,26.09,84.48,0,153.21-68.73,153.21-153.21s-68.73-153.21-153.21-153.21Z"/>
  <g>
    <path class="cls-1" d="M1245.98,367.15c-17.66,33.01-52.49,55.53-92.47,55.53-57.79,0-104.8-47.01-104.8-104.8V86.56h-48.4v231.32c0,84.48,68.73,153.21,153.21,153.21,46.64,0,88.48-20.96,116.6-53.95-10.57-15.08-18.79-31.92-24.13-49.99Z"/>
    <path class="cls-1" d="M1669.52,165.12c-40.5,0-77.38,15.81-104.8,41.56v-120.12h-48.4v94.77c28.58,21.92,50.12,52.56,60.63,87.91,17.63-33.12,52.51-55.72,92.58-55.72,57.79,0,104.8,47.01,104.8,104.8s-47.01,104.8-104.8,104.8-104.8-47.01-104.8-104.8c0-1.35-.02-2.69-.05-4.03-.01-.43-.03-.86-.05-1.29-.03-.91-.06-1.82-.11-2.72-.03-.5-.06-1-.1-1.49-.05-.83-.1-1.66-.16-2.49-.04-.52-.09-1.05-.14-1.57-.07-.8-.14-1.6-.22-2.39-.05-.53-.12-1.05-.18-1.57-.09-.79-.18-1.58-.28-2.37-.07-.52-.14-1.03-.22-1.54-.11-.79-.22-1.58-.35-2.37-.08-.5-.17-1-.25-1.5-.13-.8-.27-1.6-.41-2.39-.09-.48-.18-.96-.28-1.45-.16-.81-.31-1.61-.48-2.42-.1-.46-.2-.92-.3-1.38-.18-.82-.37-1.64-.56-2.46-.1-.43-.21-.86-.32-1.29-.21-.84-.42-1.68-.64-2.52-.11-.4-.22-.8-.33-1.2-.24-.86-.48-1.72-.73-2.58-.11-.37-.22-.73-.33-1.1-.27-.89-.54-1.77-.83-2.66-.11-.33-.21-.66-.32-.99-.3-.92-.61-1.83-.93-2.75-.1-.29-.2-.57-.3-.86-.34-.96-.69-1.91-1.05-2.86-.09-.24-.18-.47-.27-.71-.39-1-.78-2-1.19-2.99-.07-.18-.15-.36-.22-.53-.44-1.06-.89-2.11-1.35-3.15-.05-.11-.1-.22-.14-.33-.5-1.12-1.01-2.24-1.53-3.35l-.04-.09c-24.57-51.87-77.43-87.84-138.54-87.84-84.48,0-153.21,68.73-153.21,153.21s68.73,153.21,153.21,153.21c40.5,0,77.38-15.79,104.8-41.55v17.35h38.72c-23.77-21.11-41.67-48.68-50.95-79.92-17.63,33.12-52.51,55.72-92.57,55.72-57.79,0-104.8-47.01-104.8-104.8s47.01-104.8,104.8-104.8,104.38,46.6,104.79,104.04h0v.76h0s0,.04,0,.05c0,1.33.02,2.66.05,3.99.01.44.03.87.05,1.3.03.9.06,1.81.11,2.71.03.5.06,1.01.1,1.51.05.83.1,1.65.16,2.47.04.53.09,1.05.14,1.58.07.8.14,1.59.22,2.39.05.53.12,1.05.18,1.58.09.79.18,1.58.28,2.36.07.52.15,1.04.22,1.55.11.79.22,1.58.35,2.36.08.5.17,1,.25,1.51.13.8.27,1.59.41,2.38.09.48.18.96.28,1.45.16.81.32,1.61.48,2.42.1.46.2.92.3,1.37.18.82.37,1.64.56,2.46.1.43.21.87.32,1.3.21.84.42,1.68.64,2.51.11.4.22.81.33,1.21.24.86.48,1.72.73,2.57.11.37.22.74.33,1.11.27.89.54,1.77.82,2.65.11.33.21.66.32.99.3.92.61,1.84.93,2.75.1.29.2.57.3.85.34.96.69,1.91,1.05,2.86.09.24.18.47.27.71.39,1,.78,2,1.19,2.99.07.18.15.36.22.54.44,1.06.89,2.1,1.35,3.15.05.11.1.22.15.33.5,1.13,1.01,2.24,1.54,3.35.01.03.03.05.04.08,24.57,51.87,77.43,87.84,138.54,87.84,84.48,0,153.21-68.73,153.21-153.21s-68.73-153.21-153.21-153.21Z"/>
  </g>
</svg>
